# xmcd
# Track frame offsets:
# 183
# 11073
# 23400
# 35098
# 47710
# 57683
# 70075
# 80963
# 92518
# 104433
# 116740
# 129923
# 142658
# 153535
# 164700
# 177165
# 190083
# 203240
# 214965
# 225843
#
# Disc length: 3178 seconds
# Revision: 3
# Processed by: cddbd v1.4PL0 Copyright (c) Steve Scherf et al.
# Submitted via: VisiTrax 2.9.5.181 - For more info visit www.synapsa.com
#
DISCID=150c6814
DTITLE=Hank Williams - 40 Lengendary Hits Disc 2
DYEAR=1900
DGENRE=blues
TTITLE0=I Can't Help It
TTITLE1=Half As Much
TTITLE2=Kaw-Liga
TTITLE3=I'm So Lonesome
TTITLE4=Honky Tonk Blues
TTITLE5=Move It On Over
TTITLE6=Why Don't You Love Me
TTITLE7=Baby, We're Reallyy In Love
TTITLE8=Long Gone Lonesome Blues
TTITLE9=Lost Highway
TTITLE10=Wedding Bells
TTITLE11=There'll Be No Teardrops Tonight
TTITLE12=Moanin' The Blues
TTITLE13=Crazy Heart
TTITLE14=They'll Never Take Her Love From Me
TTITLE15=I'm A Long Gone Daddy
TTITLE16=On The Banks of the Pontchartrain
TTITLE17=Dear John
TTITLE18=Let's Turn Back The Years
TTITLE19=When God Comes and Gathers His Jewels
EXTD=
EXTT0=
EXTT1=
EXTT2=
EXTT3=
EXTT4=
EXTT5=
EXTT6=
EXTT7=
EXTT8=
EXTT9=
EXTT10=
EXTT11=
EXTT12=
EXTT13=
EXTT14=
EXTT15=
EXTT16=
EXTT17=
EXTT18=
EXTT19=
PLAYORDER=
